<mxfile modified="2021-03-11T06:31:32.976Z" host="app.diagrams.net" agent="5.0 (Macintosh; Intel Mac OS X 10_15_7) AppleWebKit/537.36 (KHTML, like Gecko) Chrome/88.0.4324.192 Safari/537.36" etag="wvJLjUchYYLmpOCnIfh8" version="14.2.9" type="github">
  <diagram id="Ht1M8jgEwFfnCIfOTk4-" name="Page-1">
    <mxGraphModel dx="788" dy="458" grid="1" gridSize="10" guides="1" tooltips="1" connect="1" arrows="1" fold="1" page="1" pageScale="1" pageWidth="1169" pageHeight="827" math="0" shadow="0">
      <root>
        <mxCell id="0" />
        <mxCell id="1" parent="0" />
        <mxCell id="1N8OzxeI7ak3cwzA8k8z-51" value="PToken" style="rounded=0;whiteSpace=wrap;html=1;shadow=0;glass=0;sketch=1;fillColor=#eeeeee;strokeColor=#36393d;" vertex="1" parent="1">
          <mxGeometry x="240" y="180" width="150" height="290" as="geometry" />
        </mxCell>
        <mxCell id="-QjtrjUzRDEMRZ5MF8oH-47" value="Parasset Smart Contract Diagrams&lt;br&gt;&amp;nbsp;" style="text;html=1;resizable=0;points=[];autosize=1;align=left;verticalAlign=top;spacingTop=-4;fontSize=30;fontStyle=1" parent="1" vertex="1">
          <mxGeometry x="52.5" y="79.5" width="510" height="70" as="geometry" />
        </mxCell>
        <mxCell id="SCVMTBWpLvtzJIhz15lM-1" value="" style="line;strokeWidth=2;html=1;fontSize=14;" parent="1" vertex="1">
          <mxGeometry x="52.5" y="139.5" width="1060" height="10" as="geometry" />
        </mxCell>
        <mxCell id="1N8OzxeI7ak3cwzA8k8z-6" style="edgeStyle=orthogonalEdgeStyle;rounded=0;orthogonalLoop=1;jettySize=auto;html=1;exitX=1;exitY=0.25;exitDx=0;exitDy=0;entryX=0;entryY=0.5;entryDx=0;entryDy=0;" edge="1" parent="1" source="1N8OzxeI7ak3cwzA8k8z-2" target="1N8OzxeI7ak3cwzA8k8z-3">
          <mxGeometry relative="1" as="geometry" />
        </mxCell>
        <mxCell id="1N8OzxeI7ak3cwzA8k8z-8" value="create" style="edgeLabel;html=1;align=center;verticalAlign=middle;resizable=0;points=[];" vertex="1" connectable="0" parent="1N8OzxeI7ak3cwzA8k8z-6">
          <mxGeometry x="-0.1826" y="-2" relative="1" as="geometry">
            <mxPoint as="offset" />
          </mxGeometry>
        </mxCell>
        <mxCell id="1N8OzxeI7ak3cwzA8k8z-7" style="edgeStyle=orthogonalEdgeStyle;rounded=0;orthogonalLoop=1;jettySize=auto;html=1;exitX=1;exitY=0.75;exitDx=0;exitDy=0;entryX=0;entryY=0.5;entryDx=0;entryDy=0;" edge="1" parent="1" source="1N8OzxeI7ak3cwzA8k8z-2" target="1N8OzxeI7ak3cwzA8k8z-4">
          <mxGeometry relative="1" as="geometry" />
        </mxCell>
        <mxCell id="1N8OzxeI7ak3cwzA8k8z-9" value="create" style="edgeLabel;html=1;align=center;verticalAlign=middle;resizable=0;points=[];" vertex="1" connectable="0" parent="1N8OzxeI7ak3cwzA8k8z-7">
          <mxGeometry x="0.0316" y="-1" relative="1" as="geometry">
            <mxPoint as="offset" />
          </mxGeometry>
        </mxCell>
        <mxCell id="1N8OzxeI7ak3cwzA8k8z-2" value="&lt;font style=&quot;vertical-align: inherit&quot;&gt;&lt;font style=&quot;vertical-align: inherit&quot;&gt;&lt;font style=&quot;vertical-align: inherit&quot;&gt;&lt;font style=&quot;vertical-align: inherit&quot; size=&quot;1&quot;&gt;&lt;b style=&quot;font-size: 13px&quot;&gt;PTokenController&lt;/b&gt;&lt;/font&gt;&lt;/font&gt;&lt;/font&gt;&lt;/font&gt;" style="rounded=1;whiteSpace=wrap;html=1;fillColor=#dae8fc;strokeColor=#6c8ebf;sketch=1;glass=0;shadow=1;" vertex="1" parent="1">
          <mxGeometry x="52.5" y="300" width="120" height="60" as="geometry" />
        </mxCell>
        <mxCell id="1N8OzxeI7ak3cwzA8k8z-3" value="&lt;font style=&quot;vertical-align: inherit&quot;&gt;&lt;font style=&quot;vertical-align: inherit&quot;&gt;PUSDT&lt;/font&gt;&lt;/font&gt;" style="rounded=1;whiteSpace=wrap;html=1;shadow=1;glass=0;sketch=1;fillColor=#fff2cc;strokeColor=#d6b656;" vertex="1" parent="1">
          <mxGeometry x="255" y="240" width="120" height="60" as="geometry" />
        </mxCell>
        <mxCell id="1N8OzxeI7ak3cwzA8k8z-4" value="PETH" style="rounded=1;whiteSpace=wrap;html=1;shadow=1;glass=0;sketch=1;fillColor=#fff2cc;strokeColor=#d6b656;" vertex="1" parent="1">
          <mxGeometry x="252.5" y="354" width="120" height="60" as="geometry" />
        </mxCell>
        <mxCell id="1N8OzxeI7ak3cwzA8k8z-24" style="edgeStyle=orthogonalEdgeStyle;rounded=0;orthogonalLoop=1;jettySize=auto;html=1;exitX=0;exitY=0.25;exitDx=0;exitDy=0;" edge="1" parent="1" source="1N8OzxeI7ak3cwzA8k8z-10">
          <mxGeometry relative="1" as="geometry">
            <mxPoint x="390" y="265" as="targetPoint" />
          </mxGeometry>
        </mxCell>
        <mxCell id="1N8OzxeI7ak3cwzA8k8z-26" value="issuance" style="edgeLabel;html=1;align=center;verticalAlign=middle;resizable=0;points=[];" vertex="1" connectable="0" parent="1N8OzxeI7ak3cwzA8k8z-24">
          <mxGeometry x="-0.0933" y="-1" relative="1" as="geometry">
            <mxPoint y="1" as="offset" />
          </mxGeometry>
        </mxCell>
        <mxCell id="1N8OzxeI7ak3cwzA8k8z-25" style="edgeStyle=orthogonalEdgeStyle;rounded=0;orthogonalLoop=1;jettySize=auto;html=1;exitX=0;exitY=0.75;exitDx=0;exitDy=0;" edge="1" parent="1" source="1N8OzxeI7ak3cwzA8k8z-10">
          <mxGeometry relative="1" as="geometry">
            <mxPoint x="390" y="295" as="targetPoint" />
          </mxGeometry>
        </mxCell>
        <mxCell id="1N8OzxeI7ak3cwzA8k8z-27" value="destroy" style="edgeLabel;html=1;align=center;verticalAlign=middle;resizable=0;points=[];" vertex="1" connectable="0" parent="1N8OzxeI7ak3cwzA8k8z-25">
          <mxGeometry x="0.0781" y="1" relative="1" as="geometry">
            <mxPoint as="offset" />
          </mxGeometry>
        </mxCell>
        <mxCell id="1N8OzxeI7ak3cwzA8k8z-29" value="getPrice" style="edgeStyle=orthogonalEdgeStyle;rounded=0;orthogonalLoop=1;jettySize=auto;html=1;exitX=1;exitY=0.5;exitDx=0;exitDy=0;entryX=0;entryY=0.5;entryDx=0;entryDy=0;" edge="1" parent="1" source="1N8OzxeI7ak3cwzA8k8z-10" target="1N8OzxeI7ak3cwzA8k8z-28">
          <mxGeometry relative="1" as="geometry" />
        </mxCell>
        <mxCell id="1N8OzxeI7ak3cwzA8k8z-32" value="fee" style="edgeStyle=orthogonalEdgeStyle;rounded=0;orthogonalLoop=1;jettySize=auto;html=1;exitX=0.5;exitY=1;exitDx=0;exitDy=0;" edge="1" parent="1" source="1N8OzxeI7ak3cwzA8k8z-10" target="1N8OzxeI7ak3cwzA8k8z-17">
          <mxGeometry relative="1" as="geometry" />
        </mxCell>
        <mxCell id="1N8OzxeI7ak3cwzA8k8z-10" value="&lt;b&gt;&lt;font style=&quot;font-size: 13px&quot; color=&quot;#000000&quot;&gt;MortgagePool&lt;/font&gt;&lt;/b&gt;" style="rounded=1;whiteSpace=wrap;html=1;shadow=1;glass=0;sketch=1;fillColor=#60a917;strokeColor=#2D7600;fontColor=#ffffff;" vertex="1" parent="1">
          <mxGeometry x="460" y="250" width="120" height="60" as="geometry" />
        </mxCell>
        <mxCell id="1N8OzxeI7ak3cwzA8k8z-14" value="" style="edgeStyle=orthogonalEdgeStyle;rounded=0;orthogonalLoop=1;jettySize=auto;html=1;" edge="1" parent="1" source="1N8OzxeI7ak3cwzA8k8z-12" target="1N8OzxeI7ak3cwzA8k8z-2">
          <mxGeometry relative="1" as="geometry" />
        </mxCell>
        <mxCell id="1N8OzxeI7ak3cwzA8k8z-12" value="governance" style="shape=umlActor;verticalLabelPosition=bottom;verticalAlign=top;html=1;outlineConnect=0;shadow=1;glass=0;sketch=1;fillColor=#cdeb8b;strokeColor=#36393d;" vertex="1" parent="1">
          <mxGeometry x="97.5" y="170" width="30" height="60" as="geometry" />
        </mxCell>
        <mxCell id="1N8OzxeI7ak3cwzA8k8z-36" value="issuance" style="edgeStyle=orthogonalEdgeStyle;rounded=0;orthogonalLoop=1;jettySize=auto;html=1;exitX=0;exitY=0.25;exitDx=0;exitDy=0;" edge="1" parent="1" source="1N8OzxeI7ak3cwzA8k8z-17">
          <mxGeometry relative="1" as="geometry">
            <mxPoint x="390" y="369" as="targetPoint" />
          </mxGeometry>
        </mxCell>
        <mxCell id="1N8OzxeI7ak3cwzA8k8z-37" style="edgeStyle=orthogonalEdgeStyle;rounded=0;orthogonalLoop=1;jettySize=auto;html=1;exitX=0;exitY=0.75;exitDx=0;exitDy=0;" edge="1" parent="1" source="1N8OzxeI7ak3cwzA8k8z-17">
          <mxGeometry relative="1" as="geometry">
            <mxPoint x="390" y="399" as="targetPoint" />
            <Array as="points">
              <mxPoint x="400" y="399" />
              <mxPoint x="400" y="399" />
            </Array>
          </mxGeometry>
        </mxCell>
        <mxCell id="1N8OzxeI7ak3cwzA8k8z-38" value="destroy" style="edgeLabel;html=1;align=center;verticalAlign=middle;resizable=0;points=[];" vertex="1" connectable="0" parent="1N8OzxeI7ak3cwzA8k8z-37">
          <mxGeometry x="-0.0362" relative="1" as="geometry">
            <mxPoint as="offset" />
          </mxGeometry>
        </mxCell>
        <mxCell id="1N8OzxeI7ak3cwzA8k8z-17" value="&lt;b&gt;&lt;font style=&quot;font-size: 13px&quot; color=&quot;#000000&quot;&gt;InsurancePool&lt;/font&gt;&lt;/b&gt;" style="rounded=1;whiteSpace=wrap;html=1;shadow=1;glass=0;sketch=1;fillColor=#6a00ff;strokeColor=#3700CC;fontColor=#ffffff;" vertex="1" parent="1">
          <mxGeometry x="460" y="354" width="120" height="60" as="geometry" />
        </mxCell>
        <mxCell id="1N8OzxeI7ak3cwzA8k8z-18" value="Actor" style="shape=umlActor;verticalLabelPosition=bottom;verticalAlign=top;html=1;outlineConnect=0;shadow=1;glass=0;sketch=1;fillColor=#e3c800;strokeColor=#B09500;fontColor=#ffffff;" vertex="1" parent="1">
          <mxGeometry x="430" y="150" width="30" height="60" as="geometry" />
        </mxCell>
        <mxCell id="1N8OzxeI7ak3cwzA8k8z-19" value="Actor" style="shape=umlActor;verticalLabelPosition=bottom;verticalAlign=top;html=1;outlineConnect=0;shadow=1;glass=0;sketch=1;fillColor=#e3c800;strokeColor=#B09500;fontColor=#ffffff;" vertex="1" parent="1">
          <mxGeometry x="440" y="160" width="30" height="60" as="geometry" />
        </mxCell>
        <mxCell id="1N8OzxeI7ak3cwzA8k8z-22" style="edgeStyle=orthogonalEdgeStyle;rounded=0;orthogonalLoop=1;jettySize=auto;html=1;exitX=1;exitY=0.3333333333333333;exitDx=0;exitDy=0;exitPerimeter=0;entryX=0.5;entryY=0;entryDx=0;entryDy=0;" edge="1" parent="1" source="1N8OzxeI7ak3cwzA8k8z-20" target="1N8OzxeI7ak3cwzA8k8z-10">
          <mxGeometry relative="1" as="geometry" />
        </mxCell>
        <mxCell id="1N8OzxeI7ak3cwzA8k8z-23" value="Mortgage debt warehouse" style="edgeLabel;html=1;align=center;verticalAlign=middle;resizable=0;points=[];" vertex="1" connectable="0" parent="1N8OzxeI7ak3cwzA8k8z-22">
          <mxGeometry x="-0.0267" y="-1" relative="1" as="geometry">
            <mxPoint as="offset" />
          </mxGeometry>
        </mxCell>
        <mxCell id="1N8OzxeI7ak3cwzA8k8z-20" value="Actor" style="shape=umlActor;verticalLabelPosition=bottom;verticalAlign=top;html=1;outlineConnect=0;shadow=1;glass=0;sketch=1;fillColor=#e3c800;strokeColor=#B09500;fontColor=#ffffff;" vertex="1" parent="1">
          <mxGeometry x="450" y="170" width="30" height="60" as="geometry" />
        </mxCell>
        <mxCell id="1N8OzxeI7ak3cwzA8k8z-31" value="getPrice" style="edgeStyle=orthogonalEdgeStyle;rounded=0;orthogonalLoop=1;jettySize=auto;html=1;exitX=1;exitY=0.5;exitDx=0;exitDy=0;entryX=0;entryY=0.5;entryDx=0;entryDy=0;" edge="1" parent="1" source="1N8OzxeI7ak3cwzA8k8z-28" target="1N8OzxeI7ak3cwzA8k8z-30">
          <mxGeometry relative="1" as="geometry" />
        </mxCell>
        <mxCell id="1N8OzxeI7ak3cwzA8k8z-28" value="&lt;font color=&quot;#000000&quot; size=&quot;1&quot;&gt;&lt;b style=&quot;font-size: 13px&quot;&gt;PriceController&lt;/b&gt;&lt;/font&gt;" style="rounded=1;whiteSpace=wrap;html=1;shadow=1;glass=0;sketch=1;fillColor=#76608a;strokeColor=#432D57;fontColor=#ffffff;" vertex="1" parent="1">
          <mxGeometry x="660" y="250" width="120" height="60" as="geometry" />
        </mxCell>
        <mxCell id="1N8OzxeI7ak3cwzA8k8z-30" value="&lt;b&gt;&lt;font color=&quot;#000000&quot; style=&quot;font-size: 13px&quot;&gt;NestOracle&lt;/font&gt;&lt;/b&gt;" style="whiteSpace=wrap;html=1;aspect=fixed;shadow=1;glass=0;sketch=1;fillColor=#e3c800;strokeColor=#B09500;fontColor=#ffffff;" vertex="1" parent="1">
          <mxGeometry x="890" y="240" width="80" height="80" as="geometry" />
        </mxCell>
        <mxCell id="1N8OzxeI7ak3cwzA8k8z-39" value="Actor" style="shape=umlActor;verticalLabelPosition=bottom;verticalAlign=top;html=1;outlineConnect=0;shadow=1;glass=0;sketch=1;fillColor=#e51400;strokeColor=#B20000;fontColor=#ffffff;" vertex="1" parent="1">
          <mxGeometry x="420" y="480" width="30" height="60" as="geometry" />
        </mxCell>
        <mxCell id="1N8OzxeI7ak3cwzA8k8z-42" value="Actor" style="shape=umlActor;verticalLabelPosition=bottom;verticalAlign=top;html=1;outlineConnect=0;shadow=1;glass=0;sketch=1;fillColor=#e51400;strokeColor=#B20000;fontColor=#ffffff;" vertex="1" parent="1">
          <mxGeometry x="430" y="490" width="30" height="60" as="geometry" />
        </mxCell>
        <mxCell id="1N8OzxeI7ak3cwzA8k8z-44" style="edgeStyle=orthogonalEdgeStyle;rounded=0;orthogonalLoop=1;jettySize=auto;html=1;exitX=1;exitY=0.3333333333333333;exitDx=0;exitDy=0;exitPerimeter=0;entryX=0.25;entryY=1;entryDx=0;entryDy=0;" edge="1" parent="1" source="1N8OzxeI7ak3cwzA8k8z-43" target="1N8OzxeI7ak3cwzA8k8z-17">
          <mxGeometry relative="1" as="geometry" />
        </mxCell>
        <mxCell id="1N8OzxeI7ak3cwzA8k8z-45" value="Insurance" style="edgeLabel;html=1;align=center;verticalAlign=middle;resizable=0;points=[];" vertex="1" connectable="0" parent="1N8OzxeI7ak3cwzA8k8z-44">
          <mxGeometry x="0.0397" relative="1" as="geometry">
            <mxPoint as="offset" />
          </mxGeometry>
        </mxCell>
        <mxCell id="1N8OzxeI7ak3cwzA8k8z-43" value="Actor" style="shape=umlActor;verticalLabelPosition=bottom;verticalAlign=top;html=1;outlineConnect=0;shadow=1;glass=0;sketch=1;fillColor=#e51400;strokeColor=#B20000;fontColor=#ffffff;" vertex="1" parent="1">
          <mxGeometry x="440" y="500" width="30" height="60" as="geometry" />
        </mxCell>
        <mxCell id="1N8OzxeI7ak3cwzA8k8z-49" style="edgeStyle=orthogonalEdgeStyle;rounded=0;orthogonalLoop=1;jettySize=auto;html=1;exitX=0;exitY=0.3333333333333333;exitDx=0;exitDy=0;exitPerimeter=0;entryX=0.75;entryY=1;entryDx=0;entryDy=0;" edge="1" parent="1" source="1N8OzxeI7ak3cwzA8k8z-46" target="1N8OzxeI7ak3cwzA8k8z-17">
          <mxGeometry relative="1" as="geometry" />
        </mxCell>
        <mxCell id="1N8OzxeI7ak3cwzA8k8z-50" value="exchange" style="edgeLabel;html=1;align=center;verticalAlign=middle;resizable=0;points=[];" vertex="1" connectable="0" parent="1N8OzxeI7ak3cwzA8k8z-49">
          <mxGeometry x="0.098" y="-2" relative="1" as="geometry">
            <mxPoint as="offset" />
          </mxGeometry>
        </mxCell>
        <mxCell id="1N8OzxeI7ak3cwzA8k8z-46" value="Actor" style="shape=umlActor;verticalLabelPosition=bottom;verticalAlign=top;html=1;outlineConnect=0;shadow=1;glass=0;sketch=1;fillColor=#6a00ff;strokeColor=#3700CC;fontColor=#ffffff;" vertex="1" parent="1">
          <mxGeometry x="600" y="480" width="30" height="60" as="geometry" />
        </mxCell>
        <mxCell id="1N8OzxeI7ak3cwzA8k8z-47" value="Actor" style="shape=umlActor;verticalLabelPosition=bottom;verticalAlign=top;html=1;outlineConnect=0;shadow=1;glass=0;sketch=1;fillColor=#6a00ff;strokeColor=#3700CC;fontColor=#ffffff;" vertex="1" parent="1">
          <mxGeometry x="610" y="490" width="30" height="60" as="geometry" />
        </mxCell>
        <mxCell id="1N8OzxeI7ak3cwzA8k8z-48" value="Actor" style="shape=umlActor;verticalLabelPosition=bottom;verticalAlign=top;html=1;outlineConnect=0;shadow=1;glass=0;sketch=1;fillColor=#6a00ff;strokeColor=#3700CC;fontColor=#ffffff;" vertex="1" parent="1">
          <mxGeometry x="620" y="500" width="30" height="60" as="geometry" />
        </mxCell>
      </root>
    </mxGraphModel>
  </diagram>
</mxfile>
